# Blender v2.77 (sub 0) OBJ File: ''
# www.blender.org
mtllib Invader III.mtl
o ShapeIndexedFaceSet.044
v -1.077143 -0.701777 0.954422
v -1.141530 0.377220 0.192065
v -2.698223 -0.435772 -0.288827
v -1.267081 1.741851 -1.993051
v -0.330518 0.127872 0.353843
v -0.628335 -0.409643 -0.528175
v -1.267081 1.741851 -1.993051
v -0.628335 -0.409643 -0.528175
v -1.141530 0.377220 0.192065
v -0.628335 -0.409643 -0.528175
v -0.330518 0.127872 0.353843
v -1.077143 -0.701777 0.954422
v -1.077143 -0.701777 0.954422
v -2.698223 -0.435772 -0.288827
v -0.628335 -0.409643 -0.528175
v 1.138427 0.386473 0.192060
v 0.631641 -0.404530 -0.528177
v 1.252871 1.752077 -1.993057
v 1.082816 -0.693012 0.954417
v 0.329470 0.130550 0.353841
v 0.631641 -0.404530 -0.528177
v 0.631641 -0.404530 -0.528177
v 2.701674 -0.413859 -0.288840
v 1.082816 -0.693012 0.954417
v 0.631641 -0.404530 -0.528177
v 0.329470 0.130550 0.353841
v 1.252871 1.752077 -1.993057
v 2.701674 -0.413859 -0.288840
v 1.138427 0.386473 0.192060
v 1.082816 -0.693012 0.954417
v -0.749781 -0.053337 0.340548
v 0.004002 -0.984381 0.361606
v 0.000505 -0.123424 1.327835
v -0.002226 0.548055 0.384865
v -0.749781 -0.053337 0.340548
v 0.000505 -0.123424 1.327835
v 0.750191 -0.047250 0.340545
v -0.002226 0.548055 0.384865
v 0.000505 -0.123424 1.327835
v 0.004002 -0.984381 0.361606
v 0.750191 -0.047250 0.340545
v 0.000505 -0.123424 1.327835
v 0.004002 -0.984381 0.361606
v -0.749781 -0.053337 0.340548
v 0.000498 -0.123426 -1.108805
v -0.749781 -0.053337 0.340548
v -0.002226 0.548055 0.384865
v 0.000498 -0.123426 -1.108805
v 0.750191 -0.047250 0.340545
v 0.004002 -0.984381 0.361606
v 0.000498 -0.123426 -1.108805
v -0.002226 0.548055 0.384865
v 0.750191 -0.047250 0.340545
v 0.000498 -0.123426 -1.108805
v 0.329470 0.130550 0.353841
v 1.138427 0.386473 0.192060
v 1.252871 1.752077 -1.993057
v -0.628335 -0.409643 -0.528175
v -2.698223 -0.435772 -0.288827
v -1.141530 0.377220 0.192065
v -1.267081 1.741851 -1.993051
v -1.141530 0.377220 0.192065
v -0.330518 0.127872 0.353843
v -1.077143 -0.701777 0.954422
v -0.330518 0.127872 0.353843
v -1.141530 0.377220 0.192065
v 1.138427 0.386473 0.192060
v 0.329470 0.130550 0.353841
v 1.082816 -0.693012 0.954417
v 1.138427 0.386473 0.192060
v 2.701674 -0.413859 -0.288840
v 0.631641 -0.404530 -0.528177
vt 1.3320 -0.9570
vt 1.6660 0.8320
vt -0.8613 0.8320
vt 1.3730 -0.0684
vt -4.3750 -0.0625
vt -3.2637 1.6016
vt 1.8594 -0.3320
vt -0.5742 2.3438
vt -1.0020 -0.3320
vt 1.3125 1.0000
vt -0.1660 1.0000
vt 0.3105 -1.0977
vt -0.2656 -1.0176
vt 1.7207 0.9980
vt -1.1660 1.0000
vt -1.0020 -0.3320
vt -0.5742 2.3438
vt 1.8594 -0.3320
vt 0.3105 -1.0977
vt -0.1660 1.0000
vt 1.3125 1.0000
vt -1.1660 1.0000
vt 1.7207 0.9980
vt -0.2656 -1.0176
vt -3.2637 1.6016
vt -4.3750 -0.0625
vt 1.3730 -0.0684
vt -1.3613 0.8320
vt 1.1660 0.8320
vt 0.8320 -0.9570
vt 1.1182 0.9492
vt 1.0537 0.5000
vt 0.3545 0.5000
vt 1.1182 0.5000
vt 1.1182 0.9492
vt 0.3545 0.5000
vt 1.1182 0.0498
vt 1.1182 0.5000
vt 0.3545 0.5000
vt 1.0537 0.5000
vt 1.1182 0.0498
vt 0.3545 0.5000
vt 1.0332 0.5000
vt 1.0713 0.8936
vt 1.7324 0.5000
vt 1.0713 0.8936
vt 1.0713 0.5000
vt 1.7324 0.5000
vt 1.0713 0.1055
vt 1.0332 0.5000
vt 1.7324 0.5000
vt 1.0713 0.5000
vt 1.0713 0.1055
vt 1.7324 0.5000
vt 0.0264 0.2529
vt 0.1533 0.5068
vt 0.8701 0.2969
vt 0.7363 1.1992
vt 1.3115 0.2939
vt 0.7090 0.2412
vt 0.8701 0.2969
vt 0.1533 0.5068
vt 0.0264 0.2529
vt 0.1982 0.5723
vt 1.0215 0.5752
vt 0.9951 0.9971
vt 0.9951 0.9971
vt 1.0215 0.5752
vt 0.1982 0.5723
vt 0.7090 0.2412
vt 1.3115 0.2939
vt 0.7363 1.1992
vn -0.4798 0.4870 0.7298
vn 0.9380 0.0444 -0.3438
vn -0.8942 -0.4010 -0.1991
vn 0.7780 -0.6178 0.1138
vn -0.0103 -0.9805 -0.1963
vn 0.8974 -0.3937 -0.1991
vn -0.7730 -0.6241 0.1138
vn 0.0183 -0.9804 -0.1963
vn -0.9383 0.0368 -0.3438
vn 0.4758 0.4909 0.7298
vn -0.6860 -0.5445 0.4827
vn -0.5674 0.6700 0.4787
vn 0.5619 0.6746 0.4787
vn 0.6904 -0.5389 0.4827
vn -0.7252 -0.5950 -0.3466
vn -0.5784 0.7437 -0.3354
vn 0.7300 -0.5890 -0.3466
vn 0.5723 0.7483 -0.3354
vn -0.1626 0.8405 0.5168
vn -0.0965 0.6371 -0.7647
vn 0.1557 0.8418 0.5168
vn 0.0148 0.5776 0.8162
vn -0.0194 0.5774 0.8162
vn 0.0913 0.6378 -0.7647
usemtl Material.001_E9BFC1B_c.png
s 1
f 1/1/1 2/2/1 3/3/1
f 4/4/2 5/5/2 6/6/2
f 7/7/3 8/8/3 9/9/3
f 10/10/4 11/11/4 12/12/4
f 13/13/5 14/14/5 15/15/5
f 16/16/6 17/17/6 18/18/6
f 19/19/7 20/20/7 21/21/7
f 22/22/8 23/23/8 24/24/8
f 25/25/9 26/26/9 27/27/9
f 28/28/10 29/29/10 30/30/10
usemtl Material.001_3855F112_c.png
f 31/31/11 32/32/11 33/33/11
f 34/34/12 35/35/12 36/36/12
f 37/37/13 38/38/13 39/39/13
f 40/40/14 41/41/14 42/42/14
f 43/43/15 44/44/15 45/45/15
f 46/46/16 47/47/16 48/48/16
f 49/49/17 50/50/17 51/51/17
f 52/52/18 53/53/18 54/54/18
f 55/55/19 56/56/19 57/57/19
f 58/58/20 59/59/20 60/60/20
f 61/61/21 62/62/21 63/63/21
f 64/64/22 65/65/22 66/66/22
f 67/67/23 68/68/23 69/69/23
f 70/70/24 71/71/24 72/72/24
